<?xml version="1.0" standalone="no"?>
<!DOCTYPE svg PUBLIC "-//W3C//DTD SVG 20010904//EN"
 "http://www.w3.org/TR/2001/REC-SVG-20010904/DTD/svg10.dtd">
<svg version="1.0" xmlns="http://www.w3.org/2000/svg"
 width="900.000000pt" height="900.000000pt" viewBox="0 0 900.000000 900.000000"
 preserveAspectRatio="xMidYMid meet">

<g transform="translate(0.000000,900.000000) scale(0.100000,-0.100000)"
fill="#f9fafb" stroke="none">
<path d="M0 4500 l0 -4500 4500 0 4500 0 0 4500 0 4500 -4500 0 -4500 0 0
-4500z m5350 4204 c30 -8 67 -18 82 -21 49 -9 51 -23 28 -130 -12 -54 -22
-137 -23 -184 -2 -67 -6 -91 -19 -106 -10 -11 -18 -34 -18 -51 0 -17 -4 -33
-10 -37 -5 -3 -37 0 -72 6 -117 21 -131 22 -187 9 -108 -23 -190 -94 -253
-220 -7 -14 -20 -36 -30 -49 -10 -13 -18 -33 -18 -45 0 -11 -9 -34 -20 -51
-11 -16 -20 -41 -20 -55 0 -14 -7 -47 -16 -75 -9 -27 -20 -86 -25 -130 -4 -44
-13 -104 -18 -134 -31 -164 -39 -1064 -21 -2096 5 -258 10 -585 13 -725 2
-140 7 -426 12 -635 9 -446 11 -2158 2 -2260 -21 -243 -30 -323 -48 -430 -12
-66 -29 -149 -39 -185 -10 -36 -21 -78 -25 -95 -14 -70 -128 -323 -180 -399
-14 -20 -25 -39 -25 -43 0 -17 -140 -167 -190 -204 -107 -79 -210 -110 -386
-116 l-140 -5 -108 51 -109 52 7 37 c4 20 13 80 21 132 8 52 21 113 29 135 8
22 15 56 16 75 1 54 11 64 61 57 24 -3 68 -9 97 -13 103 -14 224 28 290 100
39 43 122 195 122 225 0 9 9 30 20 46 11 17 20 41 20 54 0 14 9 59 19 100 11
42 24 121 30 176 6 55 16 134 21 175 14 103 13 2081 0 2570 -20 691 -22 902
-27 1940 -3 699 -1 1066 7 1155 6 72 15 173 19 225 9 98 37 235 72 350 10 36
24 84 29 107 6 23 15 45 20 48 6 3 10 14 10 23 0 22 90 199 137 270 107 160
215 263 338 320 129 60 169 69 330 71 83 1 138 -4 175 -15z m-1142 -985 c1
-13 -6 -51 -18 -83 -11 -33 -20 -78 -20 -100 0 -23 -7 -68 -14 -101 -8 -33
-18 -122 -22 -197 -4 -93 -11 -141 -20 -149 -7 -5 -39 -14 -71 -19 -139 -21
-304 -63 -378 -94 -17 -8 -44 -16 -62 -20 -17 -4 -48 -16 -69 -27 -21 -10 -44
-19 -52 -19 -7 0 -30 -8 -50 -19 -20 -10 -64 -31 -97 -47 -93 -45 -244 -132
-312 -180 -34 -24 -64 -44 -67 -44 -18 0 -221 -178 -343 -302 -235 -238 -352
-401 -506 -703 -8 -16 -27 -57 -42 -90 -15 -33 -31 -67 -35 -77 -5 -9 -29 -76
-53 -150 -46 -137 -87 -306 -107 -438 -6 -41 -16 -91 -21 -111 -5 -20 -9 -147
-9 -282 0 -201 4 -265 19 -349 11 -57 23 -130 27 -163 3 -33 12 -74 20 -92 7
-18 16 -54 20 -80 3 -26 12 -59 19 -73 8 -14 16 -44 20 -65 4 -22 13 -49 20
-60 7 -11 19 -45 28 -76 17 -57 161 -348 212 -429 59 -93 96 -147 140 -205 25
-33 56 -73 68 -89 45 -60 187 -213 237 -256 29 -25 57 -50 64 -55 81 -74 337
-262 427 -315 23 -14 57 -35 76 -47 19 -13 39 -23 46 -23 7 0 23 -9 37 -20 14
-11 34 -20 45 -20 11 0 34 -9 50 -20 17 -11 38 -20 49 -20 10 0 35 -8 55 -19
45 -23 91 -39 161 -58 30 -8 78 -21 105 -28 28 -8 66 -17 85 -20 19 -3 64 -13
100 -22 36 -8 97 -18 135 -22 l70 -6 2 -45 c1 -40 -8 -107 -46 -345 -13 -79
-40 -155 -56 -155 -12 0 -50 58 -107 162 -9 17 -23 37 -30 43 -15 14 -146 55
-177 55 -11 0 -43 9 -71 20 -28 11 -62 20 -76 20 -14 0 -42 9 -62 19 -21 11
-58 22 -83 26 -40 6 -55 2 -110 -25 -35 -17 -84 -44 -109 -60 -132 -83 -193
-98 -241 -62 -13 10 -35 23 -49 30 -14 7 -37 20 -52 30 -26 17 -223 133 -276
162 -15 8 -41 26 -58 38 l-31 24 -7 204 -7 205 -137 137 c-76 75 -156 158
-180 184 -49 54 -63 57 -287 57 -129 0 -143 2 -168 21 -15 12 -34 36 -41 53
-7 18 -53 100 -101 182 -160 273 -169 299 -130 345 7 8 29 47 50 85 20 39 47
88 60 110 51 86 55 107 29 195 -38 136 -57 212 -74 298 -20 106 -32 124 -119
175 -167 98 -238 145 -244 161 -8 20 -9 590 -1 610 5 14 53 46 159 104 77 43
193 123 199 138 3 8 6 30 6 49 0 18 7 52 16 76 8 24 20 69 26 99 5 30 16 67
24 82 8 15 14 35 14 45 0 10 9 35 20 56 28 51 26 65 -20 146 -22 39 -40 73
-40 76 0 3 -25 49 -55 101 -30 53 -55 101 -55 107 0 7 15 35 32 62 17 28 45
75 61 105 16 30 35 62 41 70 7 8 25 39 40 69 16 29 46 80 67 112 22 32 39 62
39 68 0 5 12 19 26 30 25 20 40 21 217 21 l190 0 136 134 c75 73 160 156 190
183 l54 50 5 207 5 207 31 14 c17 8 47 25 66 37 56 35 113 66 145 81 17 8 36
21 44 30 7 10 21 17 30 17 9 0 21 4 26 9 11 10 56 36 147 84 56 30 57 30 85
12 15 -11 57 -34 93 -53 36 -19 84 -48 108 -63 24 -16 48 -29 54 -29 6 0 26
-9 44 -21 27 -16 37 -18 54 -9 22 12 126 41 228 65 35 8 72 19 82 25 10 5 49
13 87 17 l68 8 57 84 c31 47 69 109 84 138 14 29 31 56 36 59 5 3 13 17 19 31
11 30 33 26 37 -8z m726 -162 c67 -123 86 -146 142 -166 29 -11 76 -23 106
-27 29 -4 64 -12 78 -20 14 -7 44 -16 65 -19 22 -4 45 -12 52 -17 20 -16 137
-40 167 -34 16 4 79 35 140 69 61 35 133 74 159 87 56 26 41 31 197 -65 58
-35 119 -71 135 -80 17 -9 46 -26 66 -38 20 -12 69 -40 108 -62 l71 -40 1
-120 c1 -66 3 -159 5 -206 l3 -86 188 -189 c176 -178 189 -189 228 -191 22 -1
109 -5 194 -7 109 -3 158 -9 167 -18 13 -12 146 -240 166 -283 5 -11 20 -38
33 -60 14 -22 32 -56 41 -75 9 -19 25 -46 35 -59 21 -27 18 -73 -6 -101 -7 -8
-20 -31 -29 -50 -9 -19 -26 -52 -39 -72 -109 -181 -107 -167 -54 -338 21 -64
35 -122 57 -221 10 -48 23 -96 29 -108 11 -21 229 -171 248 -171 5 0 28 -14
51 -31 l42 -31 0 -301 c0 -166 -4 -308 -9 -316 -5 -8 -52 -39 -105 -70 -243
-143 -244 -143 -264 -246 -16 -81 -43 -187 -57 -225 -8 -19 -18 -51 -24 -70
-5 -19 -15 -49 -22 -67 -14 -33 -3 -61 66 -178 13 -22 40 -71 60 -110 20 -38
41 -77 47 -86 14 -20 -5 -58 -147 -294 -11 -19 -46 -78 -77 -132 -84 -147 -65
-138 -287 -135 l-187 2 -150 -147 c-83 -82 -170 -177 -195 -212 l-44 -64 -3
-173 -4 -173 -31 -24 c-18 -13 -72 -45 -122 -72 -49 -26 -114 -63 -143 -82
-156 -98 -269 -143 -288 -112 -3 6 -25 19 -48 29 -22 11 -72 38 -111 60 -38
22 -92 51 -119 63 l-49 24 -101 -33 c-155 -49 -252 -74 -290 -74 -56 0 -101
-28 -137 -84 -17 -28 -42 -67 -54 -86 -58 -92 -91 -146 -100 -164 -5 -11 -15
-21 -21 -23 -22 -7 -24 31 -4 91 11 34 24 97 30 141 5 44 14 103 19 131 7 40
19 195 21 281 0 21 51 40 125 48 39 4 85 13 104 21 18 8 41 14 51 14 27 0 211
56 245 74 17 9 38 16 48 16 9 0 34 9 54 20 21 11 45 20 54 20 9 0 22 7 29 15
7 8 17 15 23 15 13 0 114 50 192 95 33 19 83 46 110 61 28 15 52 29 55 33 7 9
77 61 125 93 111 76 442 411 555 563 108 146 134 185 187 285 77 145 77 144
144 295 12 26 47 130 60 175 5 19 16 46 23 60 7 14 17 47 21 75 4 27 13 65 20
85 7 19 16 64 20 100 3 36 14 92 23 125 14 50 17 109 17 345 0 293 -3 323 -51
555 -8 39 -21 99 -28 135 -8 36 -21 79 -30 95 -9 17 -16 41 -16 53 0 13 -7 38
-15 55 -8 18 -21 52 -30 77 -9 25 -23 61 -30 80 -21 54 -133 268 -165 316 -16
24 -36 58 -44 76 -9 18 -46 73 -83 121 -38 49 -73 97 -79 108 -6 10 -63 75
-127 143 -131 139 -309 295 -419 367 -40 26 -88 59 -107 73 -19 14 -40 26 -46
26 -7 0 -18 7 -25 15 -6 8 -40 28 -73 45 -34 18 -73 38 -87 45 -53 29 -200 95
-210 95 -6 0 -25 7 -43 16 -17 9 -54 23 -82 29 -27 7 -63 18 -80 23 -95 33
-364 92 -416 92 -15 0 -32 6 -38 14 -14 17 -5 192 14 261 7 28 16 75 20 105 3
30 10 66 15 80 5 14 14 37 19 53 16 42 42 34 75 -26z m-841 -1486 c17 -17 22
-437 6 -457 -6 -8 -26 -14 -45 -14 -48 0 -51 -18 -9 -53 62 -51 64 -61 62
-376 -2 -346 1 -338 -108 -234 -41 38 -148 137 -239 218 -91 82 -199 180 -240
219 -41 39 -145 134 -230 211 -85 77 -186 169 -225 205 -39 36 -106 97 -150
135 -114 102 -115 103 -115 125 0 18 7 20 73 21 39 0 90 4 112 8 66 13 1095 5
1108 -8z m1789 9 c20 0 17 -45 -6 -94 -14 -30 -26 -60 -26 -66 0 -7 -6 -24
-14 -38 -8 -15 -27 -56 -41 -92 -58 -142 -69 -165 -84 -177 -11 -10 -115 -13
-442 -13 -382 0 -428 2 -440 16 -10 12 -15 68 -17 219 -4 215 0 241 40 247 17
2 964 1 1030 -2z m-1002 -1198 c29 -20 73 -56 110 -92 15 -14 66 -58 113 -99
56 -47 87 -80 87 -93 0 -24 -82 -118 -293 -340 -24 -25 -49 -20 -57 12 -4 14
-8 161 -9 328 -3 326 -3 321 49 284z m-756 -618 c3 -9 6 -186 6 -395 0 -415 1
-406 -60 -464 -38 -36 -94 -115 -83 -116 4 -1 36 0 70 1 51 1 63 -1 71 -17 13
-25 10 -399 -4 -413 -11 -11 -222 -17 -824 -25 -378 -5 -450 -2 -450 21 0 8
19 36 43 62 23 26 59 67 79 92 43 55 217 250 307 345 37 39 80 88 96 110 17
22 62 74 101 115 39 41 147 161 239 265 93 105 189 213 214 240 25 28 75 83
109 123 35 40 67 72 72 72 4 0 11 -7 14 -16z m1531 -733 c44 -16 96 -35 115
-41 19 -7 58 -21 85 -31 28 -10 63 -21 78 -25 51 -12 54 -42 12 -119 -85 -159
-231 -312 -351 -369 -17 -8 -36 -22 -44 -30 -7 -9 -20 -16 -29 -16 -9 0 -29
-7 -46 -16 -32 -17 -65 -24 -240 -50 -126 -18 -364 -15 -389 6 -12 9 -14 27
-10 73 3 34 1 121 -4 192 -5 72 -5 137 -1 146 7 13 36 17 176 22 132 4 182 10
232 26 35 12 68 21 73 21 12 0 108 72 137 103 25 28 41 53 65 105 19 40 37 41
141 3z"/>
</g>
</svg>
